<?xml version="1.0" encoding="UTF-8"?><svg id="Layer_2" xmlns="http://www.w3.org/2000/svg" viewBox="0 0 1585 1009"><defs><style>.cls-1{stroke:#000;stroke-miterlimit:10;}</style></defs><polygon class="cls-1" points="792.5 144.5 510.64 301.09 144.5 504.5 144.5 144.5 792.5 144.5"/><polygon class="cls-1" points="1440.5 144.5 1440.5 504.5 1074.36 301.09 792.5 144.5 1440.5 144.5"/><polygon class="cls-1" points="792.5 864.5 1440.5 864.5 1440.5 504.5 792.5 864.5"/><polygon class="cls-1" points="144.5 504.5 144.5 864.5 792.5 864.5 144.5 504.5"/><path class="cls-1" d="m1080.5,360.5c0,159.06-128.94,288-288,288s-288-128.94-288-288c0-20.37,2.11-40.24,6.14-59.41,12.96-61.8,45.73-116.32,91.36-156.59h381c45.63,40.27,78.4,94.79,91.36,156.59,4.03,19.17,6.14,39.04,6.14,59.41Z"/></svg>